<?xml version="1.0" standalone="no"?>
<!DOCTYPE svg PUBLIC "-//W3C//DTD SVG 20010904//EN"
 "http://www.w3.org/TR/2001/REC-SVG-20010904/DTD/svg10.dtd">
<svg version="1.0" xmlns="http://www.w3.org/2000/svg"
 width="230.000000pt" height="294.000000pt" viewBox="0 0 230.000000 294.000000"
 preserveAspectRatio="xMidYMid meet">

<g transform="translate(0.000000,294.000000) scale(0.100000,-0.100000)"
fill="#000000" stroke="none">
<path d="M102 2158 c3 -758 4 -775 25 -850 112 -395 383 -672 758 -775 90 -25
116 -28 265 -28 142 0 177 3 254 24 314 82 552 274 691 556 30 61 67 155 82
210 l28 100 3 768 3 767 -1056 0 -1056 0 3 -772z m2068 23 c0 -589 -3 -723
-15 -796 -57 -327 -261 -598 -560 -745 -161 -79 -237 -95 -445 -94 -207 0
-275 15 -435 93 -288 141 -491 402 -556 716 -17 83 -19 146 -19 813 l0 722
1015 0 1015 0 0 -709z"/>
<path d="M1380 2365 l0 -295 -500 0 -500 0 0 -92 c0 -396 160 -728 444 -921
135 -92 308 -152 469 -164 l87 -6 0 592 0 591 290 0 290 0 0 295 0 295 -290 0
-290 0 0 -295z"/>
<path d="M10 335 c0 -2 15 -8 33 -13 l32 -8 5 -111 c5 -121 13 -138 75 -171
47 -26 206 -23 267 5 64 29 81 64 88 183 5 88 7 95 30 107 22 11 14 13 -65 12
l-90 0 40 -14 c22 -8 41 -15 43 -15 1 0 2 -41 2 -90 0 -107 -15 -145 -65 -166
-51 -21 -143 -18 -182 6 -47 28 -54 49 -51 157 3 93 4 98 28 110 22 11 11 13
-82 13 -60 0 -108 -2 -108 -5z"/>
<path d="M666 318 c-3 -13 -6 -34 -6 -48 l1 -25 27 32 c30 35 75 48 128 39
l34 -7 0 -124 c0 -117 -1 -125 -22 -139 -12 -9 -31 -16 -42 -16 -11 0 -17 -3
-14 -6 8 -7 239 -10 244 -3 2 4 -12 10 -31 13 -19 4 -39 15 -45 26 -5 10 -10
68 -10 129 0 103 1 111 22 122 32 17 120 4 137 -21 17 -25 31 -26 31 -1 0 52
3 51 -230 51 -217 0 -218 0 -224 -22z"/>
<path d="M1200 335 c0 -2 18 -9 40 -15 l41 -11 -3 -132 c-3 -129 -3 -132 -28
-144 -14 -7 -23 -13 -20 -13 121 -6 296 -4 321 4 33 11 63 51 52 69 -3 4 -13
1 -22 -7 -30 -27 -89 -46 -145 -46 -44 0 -57 4 -66 19 -15 29 -12 97 5 111 24
20 106 7 124 -19 22 -34 31 -24 31 34 0 59 -8 67 -41 34 -16 -16 -30 -19 -72
-17 -51 3 -52 4 -55 37 -2 19 -1 44 2 57 6 23 11 24 80 24 72 0 106 -13 106
-41 0 -5 5 -9 10 -9 6 0 10 16 10 35 l0 35 -185 0 c-102 0 -185 -2 -185 -5z"/>
<path d="M1713 326 c16 -7 33 -19 38 -27 6 -8 7 -61 3 -124 -6 -112 -18 -145
-52 -145 -9 0 -13 -3 -10 -6 5 -5 134 -8 163 -4 6 1 -6 6 -25 13 l-35 12 -3
93 c-1 50 1 92 5 92 4 -1 41 -50 82 -110 58 -86 77 -107 87 -99 8 6 46 57 86
112 82 115 85 115 87 -20 1 -64 -1 -72 -20 -78 -36 -12 -13 -17 76 -19 86 -1
117 6 71 18 -32 8 -36 23 -43 158 l-6 118 34 14 34 15 -61 1 -60 0 -82 -114
c-45 -63 -86 -117 -90 -120 -5 -3 -46 49 -91 114 l-82 120 -67 -1 c-62 -1 -65
-1 -39 -13z"/>
</g>
</svg>
