<?xml version="1.0" encoding="UTF-8" standalone="no"?>
<!DOCTYPE svg PUBLIC "-//W3C//DTD SVG 1.1//EN" "http://www.w3.org/Graphics/SVG/1.1/DTD/svg11.dtd">
<svg xmlns="http://www.w3.org/2000/svg" version="1.1" viewBox="0.00 0.00 170.00 178.00">
<path fill="#eff8fb" fill-opacity="0.996" d="
  M 24.98 11.25
  Q 24.98 10.20 25.05 9.07
  Q 25.08 8.54 25.46 8.17
  L 28.09 5.61
  Q 28.46 5.24 28.99 5.24
  L 139.55 5.37
  A 0.25 0.25 0.0 0 1 139.79 5.62
  Q 139.76 44.95 139.78 84.68
  Q 139.78 86.04 139.27 87.31
  C 138.79 88.49 139.03 89.61 138.69 90.82
  Q 137.82 93.85 137.08 97.08
  Q 136.49 99.65 135.28 102.06
  Q 134.45 103.72 133.70 105.50
  Q 132.97 107.22 131.99 108.87
  Q 119.66 129.51 96.45 135.68
  C 95.42 135.96 94.23 135.69 93.41 136.46
  Q 93.03 136.81 92.51 136.80
  C 89.59 136.72 86.94 137.70 84.00 137.54
  C 81.52 137.41 79.15 137.79 76.71 137.19
  Q 74.84 136.72 73.04 136.84
  Q 72.51 136.87 72.05 136.62
  Q 71.10 136.11 70.05 135.92
  Q 69.03 135.74 67.93 135.44
  Q 43.61 128.66 31.68 106.16
  Q 27.33 97.96 26.16 88.70
  Q 25.95 87.06 25.58 85.51
  Q 25.12 83.63 25.12 81.72
  Q 25.13 43.61 24.98 11.25
  Z
  M 28.19 7.48
  Q 28.04 7.33 27.85 7.40
  Q 27.47 7.55 27.46 7.96
  Q 27.33 11.03 27.37 14.65
  C 27.61 35.51 27.13 56.77 27.37 80.42
  C 27.47 91.39 31.04 103.01 37.43 111.94
  Q 39.72 115.14 42.95 118.41
  Q 47.20 122.72 49.28 124.28
  Q 55.20 128.71 62.02 131.55
  Q 68.90 134.41 76.33 135.17
  Q 103.56 137.94 123.08 117.71
  C 123.86 116.90 124.21 115.98 124.98 115.17
  Q 125.80 114.33 126.60 113.27
  Q 133.37 104.30 136.10 93.42
  Q 137.54 87.68 137.52 79.54
  Q 137.47 42.35 137.51 8.42
  Q 137.51 7.87 136.96 7.83
  Q 132.78 7.51 128.89 7.53
  Q 78.74 7.70 28.75 7.73
  Q 28.42 7.73 28.19 7.48
  Z"
/>
<rect fill="#ffffff" x="94.40" y="20.54" width="31.58" height="31.42" rx="0.69"/>
<path fill="#ffffff" d="
  M 94.12 52.78
  Q 94.64 83.93 94.12 115.15
  A 0.71 0.70 -1.8 0 1 93.47 115.84
  Q 88.92 116.19 84.41 115.28
  C 62.82 110.91 47.03 94.56 42.26 73.29
  Q 40.05 63.41 40.88 52.85
  Q 40.92 52.25 41.50 52.25
  L 93.59 52.25
  Q 94.11 52.25 94.12 52.78
  Z"
/>
<path fill="#eff8fb" fill-opacity="0.996" d="
  M 23.54 147.22
  Q 22.36 146.74 21.04 146.74
  Q 20.83 146.74 20.82 146.53
  L 20.80 146.22
  Q 20.80 146.20 20.83 146.20
  Q 26.07 146.02 31.57 146.07
  Q 31.87 146.07 31.88 146.37
  L 31.89 146.63
  A 0.10 0.09 0.0 0 1 31.79 146.72
  C 30.09 146.72 29.03 147.41 28.97 149.25
  C 28.88 152.58 28.24 157.16 30.14 159.96
  C 32.16 162.94 37.94 162.46 40.98 161.89
  Q 44.29 161.25 45.02 158.01
  Q 46.00 153.65 45.74 149.87
  Q 45.49 146.30 41.65 146.92
  Q 41.37 146.96 41.37 146.68
  L 41.37 146.40
  Q 41.37 146.07 41.71 146.07
  Q 45.78 146.07 49.62 146.11
  Q 49.82 146.11 49.83 146.31
  L 49.83 146.31
  Q 49.83 146.32 49.83 146.32
  Q 49.81 146.66 49.02 146.71
  A 1.70 1.70 0.0 0 0 47.43 148.37
  Q 47.35 152.76 47.37 156.70
  Q 47.38 159.62 44.37 161.59
  Q 40.79 163.92 37.29 163.81
  C 35.29 163.75 32.31 164.14 30.46 163.44
  Q 29.24 162.98 28.07 162.53
  C 25.47 161.51 24.21 159.23 24.31 156.48
  Q 24.47 152.23 24.28 148.26
  Q 24.24 147.50 23.54 147.22
  Z"
/>
<path fill="#eff8fb" fill-opacity="0.996" d="
  M 57.57 148.43
  Q 57.51 149.02 57.18 149.51
  Q 56.33 150.75 56.23 149.25
  L 56.04 146.68
  Q 56.00 146.11 56.57 146.12
  L 80.03 146.20
  A 0.33 0.33 0.0 0 1 80.36 146.53
  L 80.42 149.06
  Q 80.43 149.85 79.86 149.31
  L 78.36 147.88
  Q 78.00 147.53 77.49 147.53
  L 71.23 147.51
  Q 70.47 147.51 70.47 148.27
  L 70.50 160.30
  A 1.87 1.86 3.7 0 0 72.13 162.15
  Q 73.52 162.33 74.59 163.27
  Q 75.19 163.80 74.40 163.79
  L 62.57 163.77
  Q 62.13 163.77 62.10 163.33
  L 62.07 163.00
  Q 62.06 162.94 62.12 162.92
  Q 64.06 162.51 65.55 161.63
  Q 66.03 161.34 66.03 160.77
  L 66.10 148.18
  Q 66.10 147.51 65.43 147.51
  L 58.55 147.53
  Q 57.66 147.54 57.57 148.43
  Z"
/>
<path fill="#eff8fb" fill-opacity="0.996" d="
  M 102.74 147.53
  Q 102.03 147.77 101.38 147.37
  C 100.09 146.57 97.16 146.78 95.71 146.81
  Q 94.01 146.85 94.00 148.55
  L 93.97 152.70
  Q 93.97 153.94 95.20 153.99
  L 97.78 154.11
  Q 98.36 154.14 98.86 153.82
  L 101.93 151.83
  A 0.61 0.60 73.6 0 1 102.86 152.34
  L 102.85 157.26
  Q 102.85 158.19 102.27 157.46
  L 100.79 155.60
  Q 100.40 155.11 99.77 155.09
  L 94.85 154.93
  A 0.94 0.93 90.0 0 0 93.88 155.91
  L 94.10 161.26
  Q 94.13 162.00 94.87 162.11
  Q 102.36 163.17 106.50 159.44
  Q 107.03 158.97 106.99 159.68
  C 106.91 161.22 105.46 162.37 104.16 163.14
  Q 103.01 163.82 101.74 163.82
  Q 94.22 163.81 88.16 163.79
  Q 86.03 163.78 87.91 162.78
  Q 89.28 162.05 89.27 160.41
  Q 89.23 154.10 89.29 148.55
  Q 89.30 147.94 88.79 147.61
  Q 87.30 146.63 85.65 146.74
  Q 85.41 146.76 85.41 146.52
  L 85.40 146.20
  Q 85.40 146.12 85.48 146.12
  L 104.33 146.19
  Q 104.97 146.19 104.93 146.83
  L 104.77 149.29
  Q 104.71 150.21 104.16 149.46
  Q 103.67 148.80 103.51 147.98
  Q 103.38 147.33 102.74 147.53
  Z"
/>
<path fill="#eff8fb" fill-opacity="0.996" d="
  M 117.65 152.53
  Q 116.46 156.85 116.75 161.10
  Q 116.78 161.58 117.20 161.80
  L 119.51 163.08
  Q 120.28 163.50 119.41 163.59
  Q 116.04 163.92 112.47 163.71
  Q 111.83 163.68 112.27 163.21
  Q 113.03 162.41 114.06 162.09
  A 0.81 0.81 0.0 0 0 114.61 161.49
  C 115.51 157.45 115.03 153.67 115.22 149.35
  C 115.30 147.55 113.43 146.81 111.90 146.74
  Q 111.83 146.74 111.84 146.68
  L 111.85 146.41
  Q 111.86 146.22 112.05 146.22
  L 118.12 146.12
  Q 118.63 146.11 118.92 146.53
  L 127.07 158.58
  A 0.89 0.89 0.0 0 0 128.53 158.60
  L 137.02 146.58
  A 1.14 1.14 0.0 0 1 137.94 146.11
  L 143.13 146.14
  Q 143.48 146.15 143.45 146.50
  L 143.43 146.76
  Q 143.43 146.82 143.36 146.81
  Q 141.49 146.58 140.62 147.54
  Q 140.26 147.93 140.28 148.46
  Q 140.46 153.76 140.47 158.99
  Q 140.48 160.26 140.94 161.43
  A 1.25 1.23 85.6 0 0 141.80 162.18
  Q 142.89 162.43 143.78 163.18
  Q 144.48 163.76 143.57 163.76
  L 135.03 163.77
  Q 134.10 163.78 134.64 163.01
  Q 134.92 162.61 135.40 162.43
  Q 135.96 162.21 136.01 161.61
  Q 136.38 157.14 135.85 152.99
  Q 135.55 150.68 134.29 152.64
  Q 131.92 156.30 129.18 159.95
  Q 127.80 161.79 126.36 163.61
  A 0.58 0.58 0.0 0 1 125.55 163.71
  Q 125.28 163.51 125.34 163.17
  A 0.57 0.56 -56.7 0 0 125.25 162.73
  L 118.16 152.44
  A 0.29 0.28 -54.9 0 0 117.65 152.53
  Z"
/>
</svg>
